<svg xmlns="http://www.w3.org/2000/svg" width="43.458" height="29.435" viewBox="0 0 43.458 29.435">
  <g id="ordenar" transform="translate(-315.226 -1460.332)">
    <path id="Caminho_30" data-name="Caminho 30" d="M0,18.854s8.019,1.111,14.53-2.473S22.469,6.422,26.469,3.5A17.28,17.28,0,0,1,37.727.008" transform="translate(315.5 1465.359)" fill="none" stroke="#fff" stroke-width="4"/>
    <path id="Caminho_31" data-name="Caminho 31" d="M0,.132S8.019-.978,14.53,2.6s7.939,9.959,11.94,12.883a17.28,17.28,0,0,0,11.258,3.491" transform="translate(315.5 1465.359)" fill="none" stroke="#fff" stroke-width="4"/>
    <path id="Caminho_32" data-name="Caminho 32" d="M3.595.635a1.632,1.632,0,0,1,2.584,0L9.62,6.108c.48.764-.218,1.663-1.292,1.663A6.507,6.507,0,0,0,4.894,6.387,6.582,6.582,0,0,0,1.446,7.771c-1.074,0-1.772-.9-1.292-1.663Z" transform="translate(358.553 1460.332) rotate(90)" fill="#fff"/>
    <path id="Caminho_33" data-name="Caminho 33" d="M3.655.646a1.659,1.659,0,0,1,2.627,0l3.5,5.565c.488.777-.222,1.691-1.314,1.691A6.616,6.616,0,0,0,4.976,6.494,6.693,6.693,0,0,0,1.471,7.9C.379,7.9-.331,6.988.157,6.211Z" transform="translate(358.684 1479.829) rotate(90)" fill="#fff"/>
  </g>
</svg>
