<svg fill="rgb(160,160,160)" xmlns="http://www.w3.org/2000/svg" width="289" height="246.368" viewBox="0 0 289 246.368">
  <g id="Playlist" transform="translate(-1024 -2051.632)">
    <rect id="Retângulo_14" data-name="Retângulo 14" width="289" height="201" rx="28" transform="translate(1024 2097)"/>
    <path id="Play" d="M41.043,15.918a11,11,0,0,1,18.914,0l31.17,52.464A11,11,0,0,1,81.67,85H19.33A11,11,0,0,1,9.873,68.382Z" transform="translate(1221.5 2147.5) rotate(90)" fill="#000"/>
    <path id="Caminho_40" data-name="Caminho 40" d="M7982.85,2065.531h200.2s2.64-6.891-5.942-17.826-18.74-10.056-18.74-10.056H8006.161s-9.416-.53-16.912,10.056S7982.85,2065.531,7982.85,2065.531Z" transform="translate(-6918 14)"/>
  </g>
</svg>
