<svg xmlns="http://www.w3.org/2000/svg" width="511.928" height="468.609" viewBox="0 0 511.928 468.609">
  <g id="SoundIcon" fill="white" transform="translate(-66 -2894.279)">
    <path id="Caminho_41" data-name="Caminho 41" d="M7275,3197.995V3059.669s-.228-16.606,12.918-26.951,37.013-10.485,37.013-10.485h29.823s10.233,1.47,22.934-4.219,15.75-8.315,27.869-18.536c27.8-23.442,95.771-95.267,95.771-95.267s16.1-15.814,42.393-7.532a40.615,40.615,0,0,1,28.673,32.913v388.962s-.532,33.762-26.577,42.128-44.489-9.768-44.489-9.768-91.116-89.2-109.915-103.553-36.66-12.564-36.66-12.564h-29.823s-22.377.232-34.86-8.969S7275,3197.995,7275,3197.995Z" transform="translate(-7209)"/>
    <path id="Caminho_42" data-name="Caminho 42" d="M7625.708,3052.06l23.477-36.8s52.031,40.609,52.666,114.849-52.666,110.407-52.666,110.407l-23.477-34.9s33.629-26.016,33.629-75.508S7625.708,3052.06,7625.708,3052.06Z" transform="translate(-7209)"/>
    <path id="Caminho_43" data-name="Caminho 43" d="M7673.3,2980.358l23.478-36.168s92.641,71.7,90.1,187.819-90.1,181.474-90.1,181.474l-23.478-36.168s71.7-50.762,70.432-149.113S7673.3,2980.358,7673.3,2980.358Z" transform="translate(-7209)"/>
  </g>
</svg>
